<?xml version="1.0" encoding="UTF-8" standalone="no"?>
<svg width="63px" height="21px" viewBox="0 0 63 21" version="1.1" xmlns="http://www.w3.org/2000/svg" xmlns:xlink="http://www.w3.org/1999/xlink">
    <!-- Generator: Sketch 39.1 (31720) - http://www.bohemiancoding.com/sketch -->
    <title>Logo</title>
    <desc>Created with Sketch.</desc>
    <defs>
        <polygon id="path-1" points="0 0 61.810798 0 61.810798 20.1975309 0 20.1975309"></polygon>
    </defs>
    <g id="Breakpoints" stroke="none" stroke-width="1" fill="none" fill-rule="evenodd">
        <g id="LP-1024-1439-D2" transform="translate(-32.000000, -6477.000000)">
            <g id="Footer" transform="translate(-72.000000, 6401.000000)">
                <g id="Bottom" transform="translate(103.000000, 53.000000)">
                    <g id="Logo" transform="translate(32.439854, 33.059083) scale(1, -1) translate(-32.439854, -33.059083) translate(1.439854, 22.559083)">
                        <path d="M0.107351686,12.3909773 C0.107351686,16.6872594 3.72105462,20.185145 8.01957959,20.185145 C10.3970666,20.185145 12.0898801,19.2536824 13.3641334,18.0370782 L11.861507,16.5351839 C10.9486091,17.3907572 9.7123931,18.0560877 8.01957959,18.0560877 C4.88134433,18.0560877 2.42778253,15.5276835 2.42778253,12.3909773 C2.42778253,9.25427102 4.88134433,6.72586688 8.01957959,6.72586688 C10.0545812,6.72586688 11.214871,7.54327284 11.9566005,8.28478954 C12.5653477,8.89309165 12.964592,9.76752593 13.1168903,10.9651207 L8.01957959,10.9651207 L8.01957959,13.0943266 L15.1899293,13.0943266 C15.2660042,12.7141378 15.3040416,12.2579112 15.3040416,11.7635172 C15.3040416,10.1667242 14.8666113,8.18959383 13.4590784,6.78289521 C12.0898801,5.35718715 10.3398619,4.59680951 8.01957959,4.59680951 C3.72105462,4.59680951 0.107351686,8.09454662 0.107351686,12.3909773" id="Fill-1" fill="#545454"></path>
                        <path d="M21.0989376,6.57379136 C19.5772925,6.57379136 18.2650017,7.82841445 18.2650017,9.6154504 C18.2650017,11.4214958 19.5772925,12.6571094 21.0989376,12.6571094 C22.6204342,12.6571094 23.932725,11.4214958 23.932725,9.6154504 C23.932725,7.82841445 22.6204342,6.57379136 21.0989376,6.57379136 M21.0989376,14.6340913 C18.3220578,14.6340913 16.0586831,12.5240434 16.0586831,9.6154504 C16.0586831,6.72586688 18.3220578,4.596661 21.0989376,4.596661 C23.8756688,4.596661 26.1390436,6.72586688 26.1390436,9.6154504 C26.1390436,12.5240434 23.8756688,14.6340913 21.0989376,14.6340913" id="Fill-3" fill="#545454"></path>
                        <path d="M32.0940534,6.57379136 C30.5725568,6.57379136 29.2601174,7.82841445 29.2601174,9.6154504 C29.2601174,11.4214958 30.5725568,12.6571094 32.0940534,12.6571094 C33.6155499,12.6571094 34.9278407,11.4214958 34.9278407,9.6154504 C34.9278407,7.82841445 33.6155499,6.57379136 32.0940534,6.57379136 M32.0940534,14.6340913 C29.3171735,14.6340913 27.0537988,12.5240434 27.0537988,9.6154504 C27.0537988,6.72586688 29.3171735,4.596661 32.0940534,4.596661 C34.8707846,4.596661 37.1343079,6.72586688 37.1343079,9.6154504 C37.1343079,12.5240434 34.8707846,14.6340913 32.0940534,14.6340913" id="Fill-5" fill="#545454"></path>
                        <path d="M43.0603587,6.57379136 C41.5388622,6.57379136 40.2644602,7.84742389 40.2644602,9.59644096 C40.2644602,11.364319 41.5388622,12.6571094 43.0603587,12.6571094 C44.5628366,12.6571094 45.742145,11.364319 45.742145,9.59644096 C45.742145,7.84742389 44.5628366,6.57379136 43.0603587,6.57379136 L43.0603587,6.57379136 Z M45.5898468,14.3300887 L45.5898468,13.5125343 L45.5139205,13.5125343 C45.0194341,14.1018269 44.0683502,14.6340913 42.8701717,14.6340913 C40.3595537,14.6340913 38.0581416,12.4289962 38.0581416,9.59644096 C38.0581416,6.78289521 40.3595537,4.596661 42.8701717,4.596661 C44.0683502,4.596661 45.0194341,5.12892534 45.5139205,5.73737596 L45.5898468,5.73737596 L45.5898468,5.0148687 C45.5898468,3.09491518 44.5628366,2.06840537 42.9082091,2.06840537 C41.5578809,2.06840537 40.7209092,3.03788686 40.3785724,3.85529281 L38.4575344,3.0568963 C39.0090769,1.72608693 40.473666,0.0912750182 42.9082091,0.0912750182 C45.4949018,0.0912750182 47.6820531,1.61203028 47.6820531,5.31901975 L47.6820531,14.3300887 L45.5898468,14.3300887 Z" id="Fill-7" fill="#545454"></path>
                        <mask id="mask-2" fill="white">
                            <use xlink:href="#path-1"></use>
                        </mask>
                        <g id="Clip-10"></g>
                        <polygon id="Fill-9" fill="#545454" mask="url(#mask-2)" points="51.4099426 4.90087146 49.203624 4.90087146 49.203624 19.6529401 51.4099426 19.6529401"></polygon>
                        <path d="M57.2869608,12.6950986 C58.1619699,12.6950986 58.9036995,12.2578815 59.1509427,11.6305699 L54.6623792,9.76749622 C54.6051745,11.7066077 56.1648571,12.6950986 57.2869608,12.6950986 M57.4581292,6.57376166 C56.3360255,6.57376166 55.5372398,7.08701656 55.0237347,8.09451692 L61.7376354,10.8700438 L61.509411,11.4404755 C61.0909994,12.5620325 59.8165974,14.6342101 57.210886,14.6342101 C54.6241932,14.6342101 52.4750793,12.6000514 52.4750793,9.6154207 C52.4750793,6.80187495 54.6051745,4.59677981 57.4581292,4.59677981 C59.7595413,4.59677981 61.0909994,6.00347843 61.6423933,6.82088439 L59.9307097,7.96145084 C59.3601485,7.12503544 58.5803815,6.57376166 57.4581292,6.57376166" id="Fill-11" fill="#545454" mask="url(#mask-2)"></path>
                    </g>
                </g>
            </g>
        </g>
    </g>
</svg>