<?xml version="1.0" encoding="UTF-8" standalone="no"?>
<svg width="299px" height="44px" viewBox="0 0 299 44" version="1.1" xmlns="http://www.w3.org/2000/svg" xmlns:xlink="http://www.w3.org/1999/xlink">
    <!-- Generator: Sketch 39.1 (31720) - http://www.bohemiancoding.com/sketch -->
    <title>Logo Lockup</title>
    <desc>Created with Sketch.</desc>
    <defs>
        <polygon id="path-1" points="0.331181199 31.8296586 20.8847834 31.8296586 20.8847834 0.680991465 0.331181199 0.680991465"></polygon>
        <polygon id="path-3" points="0 43.0367998 298.863943 43.0367998 298.863943 -0.000163229018 0 -0.000163229018"></polygon>
    </defs>
    <g id="Breakpoints" stroke="none" stroke-width="1" fill="none" fill-rule="evenodd">
        <g id="LP-1440-D1" transform="translate(-571.000000, -227.000000)">
            <g id="Hero">
                <g id="Logo-Lockup" transform="translate(571.000000, 227.731152)">
                    <path d="M184.807582,33.3867818 C175.623312,33.3867818 167.89901,25.8937537 167.89901,16.6933501 C167.89901,7.49294648 175.623312,-8.16145092e-05 184.807582,-8.16145092e-05 C189.887323,-8.16145092e-05 193.506282,1.99620928 196.229056,4.60134442 L193.017454,7.81940452 C191.065399,5.98634264 188.424097,4.56053716 184.807582,4.56053716 C178.101672,4.56053716 172.858988,9.97565985 172.858988,16.6933501 C172.858988,23.4110404 178.101672,28.8261631 184.807582,28.8261631 C189.156525,28.8261631 191.635699,27.0771641 193.221132,25.4889458 C194.521416,24.1863782 195.373607,22.3125091 195.699492,19.747365 L184.851577,19.747365 L184.851577,15.1867463 L200.130721,15.1867463 C200.293664,16.0028914 200.375135,16.9790009 200.375135,18.0367249 C200.375135,21.4580052 199.438214,25.692982 196.432735,28.7037413 C193.506282,31.7577562 189.765116,33.3867818 184.807582,33.3867818 L184.807582,33.3867818 Z" id="Fill-1" fill="#888B8D"></path>
                    <path d="M223.301184,22.6380693 C223.301184,28.8252653 218.477263,33.3858841 212.563255,33.3858841 C206.645988,33.3858841 201.825326,28.8252653 201.825326,22.6380693 C201.825326,16.4068016 206.645988,11.8902546 212.563255,11.8902546 C218.477263,11.8902546 223.301184,16.4068016 223.301184,22.6380693 M218.59947,22.6380693 C218.59947,18.7703578 215.804187,16.1244154 212.563255,16.1244154 C209.322323,16.1244154 206.523781,18.7703578 206.523781,22.6380693 C206.523781,26.4649737 209.322323,29.1517233 212.563255,29.1517233 C215.804187,29.1517233 218.59947,26.4649737 218.59947,22.6380693" id="Fill-3" fill="#888B8D"></path>
                    <path d="M246.888455,22.6380693 C246.888455,28.8252653 242.053128,33.3858841 236.118752,33.3858841 C230.183561,33.3858841 225.348234,28.8252653 225.348234,22.6380693 C225.348234,16.4068016 230.183561,11.8902546 236.118752,11.8902546 C242.053128,11.8902546 246.888455,16.4068016 246.888455,22.6380693 M242.175335,22.6380693 C242.175335,18.7703578 239.37109,16.1244154 236.118752,16.1244154 C232.865599,16.1244154 230.061354,18.7703578 230.061354,22.6380693 C230.061354,26.4649737 232.865599,29.1517233 236.118752,29.1517233 C239.37109,29.1517233 242.175335,26.4649737 242.175335,22.6380693" id="Fill-5" fill="#888B8D"></path>
                    <g id="Group-9" transform="translate(248.487738, 11.207141)">
                        <mask id="mask-2" fill="white">
                            <use xlink:href="#path-1"></use>
                        </mask>
                        <g id="Clip-8"></g>
                        <path d="M20.8847834,1.33390754 L20.8847834,20.6324744 C20.8847834,28.5711177 16.2123992,31.8299851 10.6845654,31.8299851 C5.48017302,31.8299851 2.35004223,28.3262742 1.17196594,25.4762955 L5.27649455,23.76892 C6.00973706,25.5171028 7.79884877,27.5950082 10.6845654,27.5950082 C14.219609,27.5950082 16.4136335,25.394681 16.4136335,21.282942 L16.4136335,19.7379794 L16.2506907,19.7379794 C15.1940068,21.0405469 13.1637398,22.1798855 10.6006499,22.1798855 C5.23575886,22.1798855 0.331181199,17.496845 0.331181199,11.472878 C0.331181199,5.40565541 5.23575886,0.680991465 10.6006499,0.680991465 C13.1637398,0.680991465 15.1940068,1.82359459 16.2506907,3.08535491 L16.4136335,3.08535491 L16.4136335,1.33390754 L20.8847834,1.33390754 Z M16.7387044,11.472878 C16.7387044,7.6843325 14.219609,4.91596835 11.0080068,4.91596835 C7.75811308,4.91596835 5.03533924,7.6843325 5.03533924,11.472878 C5.03533924,15.2181679 7.75811308,17.9457248 11.0080068,17.9457248 C14.219609,17.9457248 16.7387044,15.2181679 16.7387044,11.472878 L16.7387044,11.472878 Z" id="Fill-7" fill="#888B8D" mask="url(#mask-2)"></path>
                    </g>
                    <mask id="mask-4" fill="white">
                        <use xlink:href="#path-3"></use>
                    </mask>
                    <g id="Clip-11"></g>
                    <polygon id="Fill-10" fill="#888B8D" mask="url(#mask-4)" points="272.261905 32.7354164 276.948954 32.7354164 276.948954 1.27220697 272.261905 1.27220697"></polygon>
                    <path d="M295.003828,26.1798942 L298.661079,28.6218003 C297.482188,30.3732477 294.637207,33.3872715 289.720409,33.3872715 C283.62309,33.3872715 279.072913,28.6626076 279.072913,22.6386406 C279.072913,16.24496 283.663826,11.8875613 289.190845,11.8875613 C294.759414,11.8875613 297.482188,16.3265745 298.378373,18.7276734 L298.864757,19.9486264 L284.519275,25.8942434 C285.61588,28.0537633 287.32352,29.1522946 289.720409,29.1522946 C292.118112,29.1522946 293.785016,27.9721488 295.003828,26.1798942 M283.745297,22.3121826 L293.336924,18.3228654 C292.810619,16.9794906 291.224371,16.0409237 289.353787,16.0409237 C286.956899,16.0409237 283.62309,18.1596364 283.745297,22.3121826" id="Fill-12" fill="#888B8D" mask="url(#mask-4)"></path>
                    <polygon id="Fill-13" fill="#888B8D" mask="url(#mask-4)" points="0.000407356949 32.8546552 0.000407356949 1.29922137 4.04709128 1.29922137 15.0017343 20.5145414 15.1777125 20.5145414 26.1323556 1.29922137 30.1798542 1.29922137 30.1798542 32.8546552 26.1331703 32.8546552 26.1323556 14.1241254 26.3083338 8.83550516 26.1323556 8.83550516 16.2775763 26.1557363 13.9018706 26.1557363 4.04709128 8.83550516 3.87111308 8.83550516 4.04709128 14.1241254 4.04790599 32.8546552"></polygon>
                    <path d="M42.1901221,29.8578521 C43.861915,29.8578521 45.379727,29.2335011 46.743558,27.9847991 C48.1073891,26.7360971 48.7893046,25.2596906 48.7893046,23.5555797 C47.6454463,22.6153805 45.9288441,22.1452809 43.6411275,22.1452809 C41.6760376,22.1452809 40.1948877,22.5713087 39.1984926,23.4233642 C38.2012828,24.2754196 37.7026779,25.2743812 37.7026779,26.4202489 C37.7026779,27.477973 38.1564736,28.3153378 39.066509,28.9323435 C39.974915,29.5493492 41.0169341,29.8578521 42.1901221,29.8578521 M41.5302038,33.5598862 C39.2424872,33.5598862 37.3287243,32.8988087 35.788915,31.5758375 C34.2491057,30.2544986 33.4792011,28.5071319 33.4792011,26.3321053 C33.4792011,23.9816074 34.3876071,22.1379356 36.2060485,20.80109 C38.0244899,19.4650605 40.268212,18.7958215 42.9372147,18.7958215 C45.3129204,18.7958215 47.2633455,19.2365398 48.7884899,20.1171604 L48.7884899,19.5009708 C48.7884899,17.9143848 48.2458905,16.644463 47.1606916,15.6887571 C46.0754926,14.7346835 44.7409913,14.2564225 43.1571875,14.2564225 C41.9839995,14.2564225 40.9207978,14.5363602 39.9675826,15.0937873 C39.0143673,15.6520306 38.3617815,16.4159424 38.0098251,17.3855228 L34.3142828,15.7981206 C34.8128877,14.5061629 35.7954327,13.308878 37.2619177,12.2070821 C38.7284027,11.1044701 40.6641629,10.5543883 43.0691984,10.5543883 C45.8261902,10.5543883 48.1139068,11.3631881 49.9323482,12.9783393 C51.7507896,14.5943065 52.6600104,16.8721675 52.6600104,19.8086575 L52.6608251,32.8547368 L48.7893046,32.8547368 L48.7893046,29.8578521 L48.6133264,29.8578521 C46.9993782,32.3250587 44.6383373,33.5598862 41.5302038,33.5598862" id="Fill-14" fill="#888B8D" mask="url(#mask-4)"></path>
                    <path d="M66.2548153,29.8578521 C68.1612458,29.8578521 69.7817117,29.1527027 71.1162131,27.742404 C72.4498997,26.3321053 73.1179651,24.4362002 73.1171504,22.0563211 C73.1171504,19.676442 72.4498997,17.7821693 71.1153984,16.3718706 C69.780897,14.9615718 68.1604311,14.2564225 66.2548153,14.2564225 C64.3768997,14.2564225 62.7637662,14.9689171 61.4154147,16.3939065 C60.0654338,17.8188958 59.3916654,19.7066394 59.3916654,22.0563211 C59.3916654,24.4076351 60.0662485,26.2953787 61.4154147,27.7203681 C62.7637662,29.1453574 64.3777144,29.8578521 66.2548153,29.8578521 M65.594897,33.5598862 C62.8085755,33.5598862 60.4035401,32.4580903 58.3797907,30.2544986 C56.3560414,28.0509068 55.3441668,25.3184531 55.3441668,22.0563211 C55.3441668,18.7958215 56.3560414,16.0633677 58.378976,13.8589598 C60.4027253,11.6561842 62.8077608,10.5543883 65.5940823,10.5543883 C67.2365455,10.5543883 68.7103629,10.906963 70.0163493,11.6121124 C71.3207063,12.3172617 72.2959188,13.1986984 72.9419869,14.2564225 L73.1171504,14.2564225 L72.9419869,11.2595377 L72.9419869,1.29930299 L76.9886708,1.29930299 L76.9894856,32.8547368 L73.1179651,32.8547368 L73.1179651,29.8578521 L72.9419869,29.8578521 C72.2967335,30.9155761 71.3207063,31.7970128 70.0163493,32.5021622 C68.7111777,33.2073115 67.2373602,33.5598862 65.594897,33.5598862" id="Fill-15" fill="#888B8D" mask="url(#mask-4)"></path>
                    <path d="M96.8304575,19.4567358 C96.7424684,18.2227244 96.1778717,17.0482916 95.1366673,15.930989 C94.0954629,14.8145025 92.5483213,14.2562592 90.4952422,14.2562592 C88.9994275,14.2562592 87.7015883,14.7263588 86.6017245,15.666558 C85.5018608,16.6075733 84.746621,17.8701497 84.3360052,19.4567358 L96.8304575,19.4567358 Z M91.0239916,33.559723 C87.7683948,33.559723 85.1205747,32.4726177 83.0829752,30.2984072 C81.0437463,28.1241967 80.025354,25.3778684 80.025354,22.056974 C80.025354,18.9131831 81.0144166,16.2101106 82.9941714,13.9477564 C84.9739262,11.6862183 87.5036128,10.5542251 90.5832313,10.5542251 C93.779354,10.5542251 96.339185,11.5972585 98.2602804,13.6833254 C100.180561,15.7693922 101.141923,18.5606085 101.141923,22.056974 L101.098744,22.8061952 L84.0728526,22.8061952 C84.1893567,24.9812219 84.9152668,26.7000235 86.2505828,27.9625999 C87.5842695,29.2268087 89.146076,29.8576888 90.9360025,29.8576888 C93.8396428,29.8576888 95.803918,28.6236775 96.8304575,26.1556547 L100.438825,27.6540971 C99.7340978,29.3288268 98.5755747,30.7317802 96.9632559,31.8629573 C95.3493076,32.9941344 93.3695529,33.559723 91.0239916,33.559723 L91.0239916,33.559723 Z" id="Fill-16" fill="#888B8D" mask="url(#mask-4)"></path>
                    <path d="M124.370394,29.8578521 C126.247495,29.8578521 127.860629,29.1453574 129.209795,27.7203681 C130.558961,26.2953787 131.233544,24.4076351 131.232729,22.0563211 C131.232729,19.7066394 130.558146,17.8188958 129.20898,16.3939065 C127.859814,14.9689171 126.24668,14.2564225 124.370394,14.2564225 C122.463149,14.2564225 120.842683,14.9615718 119.508996,16.3718706 C118.17368,17.7821693 117.507244,19.676442 117.507244,22.0563211 C117.507244,24.4362002 118.174495,26.3321053 119.508996,27.742404 C120.843498,29.1527027 122.463964,29.8578521 124.370394,29.8578521 M125.030313,33.5598862 C123.387035,33.5598862 121.913217,33.2073115 120.60886,32.5021622 C119.303689,31.7970128 118.327661,30.9155761 117.683223,29.8578521 L117.507244,29.8578521 L117.507244,32.8547368 L113.635724,32.8547368 L113.635724,1.29930299 L117.683223,1.29930299 L117.683223,11.2595377 L117.507244,14.2564225 L117.683223,14.2564225 C118.327661,13.1986984 119.302874,12.3172617 120.60886,11.6121124 C121.913217,10.906963 123.387035,10.5543883 125.030313,10.5543883 C127.815819,10.5543883 130.221669,11.6561842 132.245419,13.8589598 C134.268353,16.0633677 135.281043,18.7958215 135.281043,22.0563211 C135.281043,25.3184531 134.269168,28.0509068 132.245419,30.2544986 C130.221669,32.4580903 127.816634,33.5598862 125.030313,33.5598862" id="Fill-17" fill="#888B8D" mask="url(#mask-4)"></path>
                    <polygon id="Fill-18" fill="#888B8D" mask="url(#mask-4)" points="143.419464 42.3741716 139.239982 42.3741716 144.255361 31.4884283 135.368462 11.2594561 139.767917 11.2594561 146.191121 26.772742 146.27911 26.772742 152.526336 11.2594561 156.925791 11.2594561"></polygon>
                </g>
            </g>
        </g>
    </g>
</svg>